<svg width="32" height="32" viewBox="0 0 32 32" fill="none" xmlns="http://www.w3.org/2000/svg">
<path d="M28.7073 27.2925L22.4485 21.035C24.2626 18.8571 25.1672 16.0637 24.9741 13.2359C24.781 10.4081 23.5052 7.76357 21.412 5.85246C19.3188 3.94136 16.5694 2.91082 13.7357 2.97522C10.902 3.03962 8.20225 4.194 6.19802 6.19823C4.1938 8.20245 3.03941 10.9022 2.97501 13.7359C2.91061 16.5696 3.94116 19.319 5.85226 21.4122C7.76337 23.5054 10.4079 24.7812 13.2357 24.9743C16.0635 25.1674 18.8569 24.2628 21.0348 22.4487L27.2923 28.7075C27.3852 28.8004 27.4955 28.8741 27.6169 28.9244C27.7383 28.9747 27.8684 29.0006 27.9998 29.0006C28.1312 29.0006 28.2613 28.9747 28.3827 28.9244C28.5041 28.8741 28.6144 28.8004 28.7073 28.7075C28.8002 28.6146 28.8739 28.5043 28.9242 28.3829C28.9745 28.2615 29.0004 28.1314 29.0004 28C29.0004 27.8686 28.9745 27.7385 28.9242 27.6171C28.8739 27.4957 28.8002 27.3854 28.7073 27.2925ZM4.9998 14C4.9998 12.22 5.52764 10.4799 6.51657 8.99987C7.5055 7.51982 8.91111 6.36627 10.5556 5.68508C12.2002 5.00389 14.0098 4.82566 15.7556 5.17293C17.5014 5.5202 19.1051 6.37737 20.3638 7.63604C21.6224 8.89471 22.4796 10.4984 22.8269 12.2442C23.1741 13.99 22.9959 15.7996 22.3147 17.4441C21.6335 19.0887 20.48 20.4943 18.9999 21.4832C17.5199 22.4722 15.7798 23 13.9998 23C11.6137 22.9974 9.32601 22.0483 7.63876 20.361C5.95151 18.6738 5.00244 16.3861 4.9998 14Z" fill="black"/>
</svg>
