<svg width="30" height="30" viewBox="0 0 30 30" fill="none" xmlns="http://www.w3.org/2000/svg">
<path d="M23.8636 17.7273H20.4545V12.2727H23.8636C25.0773 12.2727 26.2637 11.9128 27.2728 11.2386C28.2819 10.5643 29.0684 9.60592 29.5329 8.48465C29.9973 7.36338 30.1189 6.12956 29.8821 4.93922C29.6453 3.74888 29.0609 2.65549 28.2027 1.7973C27.3445 0.939116 26.2511 0.354684 25.0608 0.117911C23.8704 -0.118862 22.6366 0.00265876 21.5154 0.467106C20.3941 0.931552 19.4357 1.71806 18.7614 2.72718C18.0872 3.7363 17.7273 4.92271 17.7273 6.13637V9.54546H12.2727V6.13637C12.2727 4.92271 11.9128 3.7363 11.2386 2.72718C10.5643 1.71806 9.60592 0.931552 8.48465 0.467106C7.36338 0.00265876 6.12956 -0.118862 4.93922 0.117911C3.74888 0.354684 2.65549 0.939116 1.7973 1.7973C0.939116 2.65549 0.354684 3.74888 0.117911 4.93922C-0.118862 6.12956 0.00265876 7.36338 0.467106 8.48465C0.931552 9.60592 1.71806 10.5643 2.72718 11.2386C3.7363 11.9128 4.92271 12.2727 6.13637 12.2727H9.54546V17.7273H6.13637C4.92271 17.7273 3.7363 18.0872 2.72718 18.7614C1.71806 19.4357 0.931552 20.3941 0.467106 21.5154C0.00265876 22.6366 -0.118862 23.8704 0.117911 25.0608C0.354684 26.2511 0.939116 27.3445 1.7973 28.2027C2.65549 29.0609 3.74888 29.6453 4.93922 29.8821C6.12956 30.1189 7.36338 29.9973 8.48465 29.5329C9.60592 29.0684 10.5643 28.2819 11.2386 27.2728C11.9128 26.2637 12.2727 25.0773 12.2727 23.8636V20.4545H17.7273V23.8636C17.7273 25.0773 18.0872 26.2637 18.7614 27.2728C19.4357 28.2819 20.3941 29.0684 21.5154 29.5329C22.6366 29.9973 23.8704 30.1189 25.0608 29.8821C26.2511 29.6453 27.3445 29.0609 28.2027 28.2027C29.0609 27.3445 29.6453 26.2511 29.8821 25.0608C30.1189 23.8704 29.9973 22.6366 29.5329 21.5154C29.0684 20.3941 28.2819 19.4357 27.2728 18.7614C26.2637 18.0872 25.0773 17.7273 23.8636 17.7273ZM20.4545 6.13637C20.4545 5.46211 20.6545 4.803 21.0291 4.24238C21.4037 3.68175 21.9361 3.2448 22.559 2.98678C23.182 2.72875 23.8674 2.66124 24.5287 2.79278C25.19 2.92432 25.7975 3.249 26.2742 3.72577C26.751 4.20254 27.0757 4.80999 27.2072 5.47128C27.3388 6.13258 27.2712 6.81804 27.0132 7.44097C26.7552 8.0639 26.3182 8.59632 25.7576 8.97092C25.197 9.34552 24.5379 9.54546 23.8636 9.54546H20.4545V6.13637ZM2.72727 6.13637C2.72727 5.23222 3.08645 4.3651 3.72577 3.72577C4.3651 3.08645 5.23222 2.72727 6.13637 2.72727C7.04051 2.72727 7.90763 3.08645 8.54696 3.72577C9.18629 4.3651 9.54546 5.23222 9.54546 6.13637V9.54546H6.13637C5.23222 9.54546 4.3651 9.18629 3.72577 8.54696C3.08645 7.90763 2.72727 7.04051 2.72727 6.13637ZM9.54546 23.8636C9.54546 24.5379 9.34552 25.197 8.97092 25.7576C8.59632 26.3182 8.0639 26.7552 7.44097 27.0132C6.81804 27.2712 6.13258 27.3388 5.47128 27.2072C4.80999 27.0757 4.20254 26.751 3.72577 26.2742C3.249 25.7975 2.92432 25.19 2.79278 24.5287C2.66124 23.8674 2.72875 23.182 2.98678 22.559C3.2448 21.9361 3.68175 21.4037 4.24238 21.0291C4.803 20.6545 5.46211 20.4545 6.13637 20.4545H9.54546V23.8636ZM12.2727 12.2727H17.7273V17.7273H12.2727V12.2727ZM23.8636 27.2727C22.9595 27.2727 22.0924 26.9136 21.453 26.2742C20.8137 25.6349 20.4545 24.7678 20.4545 23.8636V20.4545H23.8636C24.7678 20.4545 25.6349 20.8137 26.2742 21.453C26.9136 22.0924 27.2727 22.9595 27.2727 23.8636C27.2727 24.7678 26.9136 25.6349 26.2742 26.2742C25.6349 26.9136 24.7678 27.2727 23.8636 27.2727Z" fill="#14E41C"/>
</svg>
